0
SECTION
2
HEADER
9
$INSUNITS
70
4
0
ENDSEC
0
SECTION
2
TABLES
0
TABLE
2
LTYPE
0
LTYPE
72
65
70
64
2
CONTINUOUS
3
______
73
0
40
0
0
ENDTAB
0
TABLE
2
LAYER
0
ENDTAB
0
ENDSEC
0
SECTION
2
ENTITIES
0
LINE
8
0
10
-13.7313662
20
41.5433459
11
-10.2016886
21
-8.9333951
0
LINE
8
0
10
-8.0670476
20
-10.7890102
11
78.7650272
21
-4.7171201
0
LINE
8
0
10
80.7927483
20
-7.3715432
11
71.7755705
21
-33.1965626
0
LINE
8
0
10
72.9940597
20
-35.7403937
11
112.2473708
21
-49.6900804
0
LINE
8
0
10
114.802571
20
-48.4725979
11
130.0857838
21
-5.2733589
0
LINE
8
0
10
130.2003026
20
-4.6063053
11
130.2003026
21
50.8503377
0
LINE
8
0
10
128.2003026
20
52.8503377
11
84.4537973
21
52.8503377
0
LINE
8
0
10
82.4543507
20
54.8032919
11
82.4462545
21
55.1473835
0
LINE
8
0
10
80.4468079
20
57.1003377
11
66.3537973
21
57.1003377
0
LINE
8
0
10
64.3543507
20
59.0532919
11
64.3462545
21
59.3973835
0
LINE
8
0
10
62.3468079
20
61.3503377
11
44.6537973
21
61.3503377
0
LINE
8
0
10
42.6543507
20
59.3973835
11
42.6462545
21
59.0532919
0
LINE
8
0
10
40.6468079
20
57.1003377
11
26.2039406
21
57.1003377
0
LINE
8
0
10
24.2517529
20
55.5350365
11
22.4654726
21
47.513034
0
LINE
8
0
10
-11.8757511
20
43.6779869
11
20.6527978
21
45.9526047
0
ARC
8
0
10
-8.2065606
20
-8.7938822
40
2
50
184.0000013
51
274.0000013
0
ARC
8
0
10
78.9045402
20
-6.7122482
40
2
50
340.7526187
51
94.0000013
0
ARC
8
0
10
73.6637786
20
-33.8558576
40
2
50
160.7526187
51
250.4360061
0
ARC
8
0
10
112.9170898
20
-47.8055443
40
2
50
250.4360061
51
340.5170214
0
ARC
8
0
10
128.2003026
20
-4.6063053
40
2
50
340.5170214
51
0
0
ARC
8
0
10
128.2003026
20
50.8503377
40
2
50
0
51
90
0
ARC
8
0
10
84.4537973
20
54.8503377
40
2
50
181.3478872
51
270
0
ARC
8
0
10
80.4468079
20
55.1003377
40
2
50
1.3478872
51
90
0
ARC
8
0
10
66.3537973
20
59.1003377
40
2
50
181.3478872
51
270
0
ARC
8
0
10
62.3468079
20
59.3503377
40
2
50
1.3478872
51
90
0
ARC
8
0
10
44.6537973
20
59.3503377
40
2
50
90
51
178.6521128
0
ARC
8
0
10
40.6468079
20
59.1003377
40
2
50
270
51
358.6521128
0
ARC
8
0
10
26.2039406
20
55.1003377
40
2
50
90
51
167.4466024
0
ARC
8
0
10
20.5132849
20
47.9477328
40
2
50
274.0000013
51
347.4466024
0
ARC
8
0
10
-11.7362382
20
41.6828588
40
2
50
94.0000013
51
184.0000013
0
LINE
8
0
10
97.7707468
20
-17.006563
11
114.685214
21
-23.1629256
0
LINE
8
0
10
117.2486394
20
-21.9675805
11
126.8252034
21
4.343813
0
LINE
8
0
10
125.6298584
20
6.9072384
11
108.7153912
21
13.063601
0
LINE
8
0
10
106.1519658
20
11.8682559
11
96.5754018
21
-14.4431376
0
ARC
8
0
10
115.3692542
20
-21.2835403
40
2
50
250.0000019
51
340.0000019
0
ARC
8
0
10
124.9458182
20
5.0278532
40
2
50
340.0000019
51
70.0000019
0
ARC
8
0
10
108.031351
20
11.1842157
40
2
50
70.0000019
51
160.0000019
0
ARC
8
0
10
98.454787
20
-15.1271778
40
2
50
160.0000019
51
250.0000019
0
ENDSEC
0
EOF