0
SECTION
2
HEADER
9
$INSUNITS
70
4
0
ENDSEC
0
SECTION
2
TABLES
0
TABLE
2
LTYPE
0
LTYPE
72
65
70
64
2
CONTINUOUS
3
______
73
0
40
0
0
ENDTAB
0
TABLE
2
LAYER
0
ENDTAB
0
ENDSEC
0
SECTION
2
ENTITIES
0
LINE
8
0
10
306.0506514
20
49.3751015
11
301.6943595
21
-12.9227736
0
LINE
8
0
10
301.1606993
20
-13.3866774
11
201.8423317
21
-6.4416606
0
LINE
8
0
10
201.3224589
20
-7.0620171
11
208.4715352
21
-35.5816622
0
LINE
8
0
10
208.1867515
20
-36.1614023
11
168.441275
21
-53.5295158
0
LINE
8
0
10
167.8417757
20
-53.3722966
11
148.3968619
21
-27.5732298
0
LINE
8
0
10
148.2961505
20
-27.2722836
11
148.2961505
21
55.9353918
0
LINE
8
0
10
148.7961505
20
56.4353918
11
166.1596588
21
56.4353918
0
LINE
8
0
10
178.9326422
20
56.4353918
11
201.9461505
21
56.4353918
0
LINE
8
0
10
202.4461505
20
56.9353918
11
202.4461505
21
65.5103918
0
LINE
8
0
10
202.9461505
20
66.0103918
11
261.0107533
21
66.0103918
0
LINE
8
0
10
261.4942755
20
65.6376957
11
264.7949102
21
53.1013108
0
LINE
8
0
10
265.2435542
20
52.7298327
11
305.5867476
21
49.9087617
0
ARC
8
0
10
301.1955775
20
-12.8878954
40
0.5
50
265.9999987
51
355.9999987
0
ARC
8
0
10
201.8074534
20
-6.9404426
40
0.5
50
85.9999987
51
194.072478
0
ARC
8
0
10
207.9865408
20
-35.7032368
40
0.5
50
293.6045303
51
14.072478
0
ARC
8
0
10
168.2410643
20
-53.0713503
40
0.5
50
217.0055593
51
293.6045303
0
ARC
8
0
10
148.7961505
20
-27.2722836
40
0.5
50
180
51
217.0055593
0
ARC
8
0
10
148.7961505
20
55.9353918
40
0.5
50
90
51
180
0
ARC
8
0
10
201.9461505
20
56.9353918
40
0.5
50
270
51
0
0
ARC
8
0
10
202.9461505
20
65.5103918
40
0.5
50
90
51
180
0
ARC
8
0
10
261.0107533
20
65.5103918
40
0.5
50
14.7503411
51
90
0
ARC
8
0
10
265.2784324
20
53.2286147
40
0.5
50
194.7503411
51
265.9999987
0
ARC
8
0
10
305.5518694
20
49.4099797
40
0.5
50
355.9999987
51
85.9999987
0
LINE
8
0
10
284.1159402
20
-6.9820938
11
294.8397538
21
-7.7319759
0
LINE
8
0
10
296.9743948
20
-5.8763608
11
297.7242769
21
4.8474528
0
LINE
8
0
10
295.8686618
20
6.9820938
11
285.1448482
21
7.7319759
0
LINE
8
0
10
283.0102072
20
5.8763608
11
282.2603251
21
-4.8474528
0
LINE
8
0
10
285.4517767
20
12.1212578
11
296.1755903
21
11.3713757
0
LINE
8
0
10
298.3102313
20
13.2269908
11
299.0601134
21
23.9508044
0
LINE
8
0
10
297.2044983
20
26.0854454
11
286.4806847
21
26.8353275
0
LINE
8
0
10
284.3460437
20
24.9797124
11
283.5961616
21
14.2558988
0
LINE
8
0
10
286.7876132
20
31.2246094
11
297.5114268
21
30.4747273
0
LINE
8
0
10
299.6460678
20
32.3303424
11
300.3959499
21
43.054156
0
LINE
8
0
10
298.5403348
20
45.188797
11
287.8165212
21
45.9386791
0
LINE
8
0
10
285.6818802
20
44.083064
11
284.9319981
21
33.3592504
0
LINE
8
0
10
265.0125886
20
-5.6462573
11
275.7364022
21
-6.3961394
0
LINE
8
0
10
277.8710432
20
-4.5405243
11
278.6209253
21
6.1832893
0
LINE
8
0
10
276.7653102
20
8.3179303
11
266.0414966
21
9.0678124
0
LINE
8
0
10
263.9068556
20
7.2121973
11
263.1569735
21
-3.5116163
0
LINE
8
0
10
266.3484251
20
13.4570943
11
277.0722387
21
12.7072122
0
LINE
8
0
10
279.2068797
20
14.5628273
11
279.9567618
21
25.2866409
0
LINE
8
0
10
278.1011467
20
27.4212819
11
267.3773331
21
28.171164
0
LINE
8
0
10
265.2426921
20
26.3155489
11
264.49281
21
15.5917353
0
LINE
8
0
10
267.6842616
20
32.5604459
11
278.4080752
21
31.8105638
0
LINE
8
0
10
280.5427162
20
33.6661789
11
281.2925983
21
44.3899925
0
LINE
8
0
10
279.4369832
20
46.5246335
11
268.7131696
21
47.2745156
0
LINE
8
0
10
266.5785286
20
45.4189005
11
265.8286465
21
34.6950869
0
LINE
8
0
10
246.4461504
20
2.9728918
11
257.1961504
21
2.9728918
0
LINE
8
0
10
259.1961504
20
4.9728918
11
259.1961504
21
15.7228918
0
LINE
8
0
10
257.1961504
20
17.7228918
11
246.4461504
21
17.7228918
0
LINE
8
0
10
244.4461504
20
15.7228918
11
244.4461504
21
4.9728918
0
LINE
8
0
10
246.4461504
20
22.1228918
11
257.1961504
21
22.1228918
0
LINE
8
0
10
259.1961504
20
24.1228918
11
259.1961504
21
34.8728918
0
LINE
8
0
10
257.1961504
20
36.8728918
11
246.4461504
21
36.8728918
0
LINE
8
0
10
244.4461504
20
34.8728918
11
244.4461504
21
24.1228918
0
LINE
8
0
10
246.4461504
20
41.2728918
11
257.1961504
21
41.2728918
0
LINE
8
0
10
259.1961504
20
43.2728918
11
259.1961504
21
54.0228918
0
LINE
8
0
10
257.1961504
20
56.0228918
11
246.4461504
21
56.0228918
0
LINE
8
0
10
244.4461504
20
54.0228918
11
244.4461504
21
43.2728918
0
LINE
8
0
10
227.2961504
20
7.7603918
11
238.0461504
21
7.7603918
0
LINE
8
0
10
240.0461504
20
9.7603918
11
240.0461504
21
20.5103918
0
LINE
8
0
10
238.0461504
20
22.5103918
11
227.2961504
21
22.5103918
0
LINE
8
0
10
225.2961504
20
20.5103918
11
225.2961504
21
9.7603918
0
LINE
8
0
10
227.2961504
20
26.9103918
11
238.0461504
21
26.9103918
0
LINE
8
0
10
240.0461504
20
28.9103918
11
240.0461504
21
39.6603918
0
LINE
8
0
10
238.0461504
20
41.6603918
11
227.2961504
21
41.6603918
0
LINE
8
0
10
225.2961504
20
39.6603918
11
225.2961504
21
28.9103918
0
LINE
8
0
10
227.2961504
20
46.0603918
11
238.0461504
21
46.0603918
0
LINE
8
0
10
240.0461504
20
48.0603918
11
240.0461504
21
58.8103918
0
LINE
8
0
10
238.0461504
20
60.8103918
11
227.2961504
21
60.8103918
0
LINE
8
0
10
225.2961504
20
58.8103918
11
225.2961504
21
48.0603918
0
LINE
8
0
10
206.6461504
20
2.9728918
11
217.3961504
21
2.9728918
0
LINE
8
0
10
219.3961504
20
4.9728918
11
219.3961504
21
15.7228918
0
LINE
8
0
10
217.3961504
20
17.7228918
11
206.6461504
21
17.7228918
0
LINE
8
0
10
204.6461504
20
15.7228918
11
204.6461504
21
4.9728918
0
LINE
8
0
10
206.6461504
20
22.1228918
11
217.3961504
21
22.1228918
0
LINE
8
0
10
219.3961504
20
24.1228918
11
219.3961504
21
34.8728918
0
LINE
8
0
10
217.3961504
20
36.8728918
11
206.6461504
21
36.8728918
0
LINE
8
0
10
204.6461504
20
34.8728918
11
204.6461504
21
24.1228918
0
LINE
8
0
10
206.6461504
20
41.2728918
11
217.3961504
21
41.2728918
0
LINE
8
0
10
219.3961504
20
43.2728918
11
219.3961504
21
54.0228918
0
LINE
8
0
10
217.3961504
20
56.0228918
11
206.6461504
21
56.0228918
0
LINE
8
0
10
204.6461504
20
54.0228918
11
204.6461504
21
43.2728918
0
LINE
8
0
10
187.4961505
20
-1.8146082
11
198.2461505
21
-1.8146082
0
LINE
8
0
10
200.2461505
20
0.1853918
11
200.2461505
21
10.9353918
0
LINE
8
0
10
198.2461505
20
12.9353918
11
187.4961505
21
12.9353918
0
LINE
8
0
10
185.4961505
20
10.9353918
11
185.4961505
21
0.1853918
0
LINE
8
0
10
187.4961505
20
17.3353918
11
198.2461505
21
17.3353918
0
LINE
8
0
10
200.2461505
20
19.3353918
11
200.2461505
21
30.0853918
0
LINE
8
0
10
198.2461505
20
32.0853918
11
187.4961505
21
32.0853918
0
LINE
8
0
10
185.4961505
20
30.0853918
11
185.4961505
21
19.3353918
0
LINE
8
0
10
187.4961505
20
36.4853918
11
198.2461505
21
36.4853918
0
LINE
8
0
10
200.2461505
20
38.4853918
11
200.2461505
21
49.2353918
0
LINE
8
0
10
198.2461505
20
51.2353918
11
187.4961505
21
51.2353918
0
LINE
8
0
10
185.4961505
20
49.2353918
11
185.4961505
21
38.4853918
0
LINE
8
0
10
189.9284099
20
-37.2448674
11
200.0301056
21
-33.5681509
0
LINE
8
0
10
201.2254506
20
-31.0047255
11
197.5487341
21
-20.9030298
0
LINE
8
0
10
194.9853087
20
-19.7076848
11
184.883613
21
-23.3844013
0
LINE
8
0
10
183.688268
20
-25.9478267
11
187.3649845
21
-36.0495224
0
LINE
8
0
10
172.2712315
20
-45.8576285
11
181.9332675
21
-41.1451387
0
LINE
8
0
10
182.8541133
20
-38.4708083
11
178.1416235
21
-28.8087723
0
LINE
8
0
10
175.4672931
20
-27.8879265
11
165.8052571
21
-32.6004163
0
LINE
8
0
10
164.8844113
20
-35.2747467
11
169.5969011
21
-44.9367827
0
ARC
8
0
10
294.9792668
20
-5.7368479
40
2
50
265.9999987
51
355.9999987
0
ARC
8
0
10
295.7291489
20
4.9869658
40
2
50
355.9999987
51
85.9999987
0
ARC
8
0
10
285.0053352
20
5.7368479
40
2
50
85.9999987
51
175.9999987
0
ARC
8
0
10
284.2554531
20
-4.9869658
40
2
50
175.9999987
51
265.9999987
0
ARC
8
0
10
296.3151033
20
13.3665037
40
2
50
265.9999987
51
355.9999987
0
ARC
8
0
10
297.0649854
20
24.0903174
40
2
50
355.9999987
51
85.9999987
0
ARC
8
0
10
286.3411717
20
24.8401995
40
2
50
85.9999987
51
175.9999987
0
ARC
8
0
10
285.5912896
20
14.1163858
40
2
50
175.9999987
51
265.9999987
0
ARC
8
0
10
297.6509398
20
32.4698553
40
2
50
265.9999987
51
355.9999987
0
ARC
8
0
10
298.4008219
20
43.193669
40
2
50
355.9999987
51
85.9999987
0
ARC
8
0
10
287.6770082
20
43.9435511
40
2
50
85.9999987
51
175.9999987
0
ARC
8
0
10
286.9271261
20
33.2197374
40
2
50
175.9999987
51
265.9999987
0
ARC
8
0
10
275.8759152
20
-4.4010114
40
2
50
265.9999987
51
355.9999987
0
ARC
8
0
10
276.6257973
20
6.3228023
40
2
50
355.9999987
51
85.9999987
0
ARC
8
0
10
265.9019836
20
7.0726844
40
2
50
85.9999987
51
175.9999987
0
ARC
8
0
10
265.1521015
20
-3.6511293
40
2
50
175.9999987
51
265.9999987
0
ARC
8
0
10
277.2117517
20
14.7023402
40
2
50
265.9999987
51
355.9999987
0
ARC
8
0
10
277.9616338
20
25.4261539
40
2
50
355.9999987
51
85.9999987
0
ARC
8
0
10
267.2378201
20
26.176036
40
2
50
85.9999987
51
175.9999987
0
ARC
8
0
10
266.487938
20
15.4522223
40
2
50
175.9999987
51
265.9999987
0
ARC
8
0
10
278.5475882
20
33.8056918
40
2
50
265.9999987
51
355.9999987
0
ARC
8
0
10
279.2974703
20
44.5295055
40
2
50
355.9999987
51
85.9999987
0
ARC
8
0
10
268.5736566
20
45.2793876
40
2
50
85.9999987
51
175.9999987
0
ARC
8
0
10
267.8237745
20
34.5555739
40
2
50
175.9999987
51
265.9999987
0
ARC
8
0
10
181.0565252
20
-39.3475506
40
2
50
295.9999988
51
25.9999988
0
ARC
8
0
10
176.3440354
20
-29.6855146
40
2
50
25.9999988
51
115.9999988
0
ARC
8
0
10
166.6819994
20
-34.3980044
40
2
50
115.9999988
51
205.9999988
0
ARC
8
0
10
171.3944892
20
-44.0600404
40
2
50
205.9999988
51
295.9999988
0
ARC
8
0
10
238.0461504
20
9.7603918
40
2
50
270
51
0
0
ARC
8
0
10
238.0461504
20
20.5103918
40
2
50
0
51
90
0
ARC
8
0
10
227.2961504
20
20.5103918
40
2
50
90
51
180
0
ARC
8
0
10
227.2961504
20
9.7603918
40
2
50
180
51
270
0
ARC
8
0
10
238.0461504
20
28.9103918
40
2
50
270
51
0
0
ARC
8
0
10
238.0461504
20
39.6603918
40
2
50
0
51
90
0
ARC
8
0
10
227.2961504
20
39.6603918
40
2
50
90
51
180
0
ARC
8
0
10
227.2961504
20
28.9103918
40
2
50
180
51
270
0
ARC
8
0
10
238.0461504
20
48.0603918
40
2
50
270
51
0
0
ARC
8
0
10
238.0461504
20
58.8103918
40
2
50
0
51
90
0
ARC
8
0
10
227.2961504
20
58.8103918
40
2
50
90
51
180
0
ARC
8
0
10
227.2961504
20
48.0603918
40
2
50
180
51
270
0
ARC
8
0
10
217.3961504
20
4.9728918
40
2
50
270
51
0
0
ARC
8
0
10
217.3961504
20
15.7228918
40
2
50
0
51
90
0
ARC
8
0
10
206.6461504
20
15.7228918
40
2
50
90
51
180
0
ARC
8
0
10
206.6461504
20
4.9728918
40
2
50
180
51
270
0
ARC
8
0
10
217.3961504
20
24.1228918
40
2
50
270
51
0
0
ARC
8
0
10
217.3961504
20
34.8728918
40
2
50
0
51
90
0
ARC
8
0
10
206.6461504
20
34.8728918
40
2
50
90
51
180
0
ARC
8
0
10
206.6461504
20
24.1228918
40
2
50
180
51
270
0
ARC
8
0
10
217.3961504
20
43.2728918
40
2
50
270
51
0
0
ARC
8
0
10
217.3961504
20
54.0228918
40
2
50
0
51
90
0
ARC
8
0
10
206.6461504
20
54.0228918
40
2
50
90
51
180
0
ARC
8
0
10
206.6461504
20
43.2728918
40
2
50
180
51
270
0
ARC
8
0
10
198.2461505
20
0.1853918
40
2
50
270
51
0
0
ARC
8
0
10
198.2461505
20
10.9353918
40
2
50
0
51
90
0
ARC
8
0
10
187.4961505
20
10.9353918
40
2
50
90
51
180
0
ARC
8
0
10
187.4961505
20
0.1853918
40
2
50
180
51
270
0
ARC
8
0
10
198.2461505
20
19.3353918
40
2
50
270
51
0
0
ARC
8
0
10
198.2461505
20
30.0853918
40
2
50
0
51
90
0
ARC
8
0
10
187.4961505
20
30.0853918
40
2
50
90
51
180
0
ARC
8
0
10
187.4961505
20
19.3353918
40
2
50
180
51
270
0
ARC
8
0
10
198.2461505
20
38.4853918
40
2
50
270
51
0
0
ARC
8
0
10
198.2461505
20
49.2353918
40
2
50
0
51
90
0
ARC
8
0
10
187.4961505
20
49.2353918
40
2
50
90
51
180
0
ARC
8
0
10
187.4961505
20
38.4853918
40
2
50
180
51
270
0
ARC
8
0
10
257.1961504
20
4.9728918
40
2
50
270
51
0
0
ARC
8
0
10
257.1961504
20
15.7228918
40
2
50
0
51
90
0
ARC
8
0
10
246.4461504
20
15.7228918
40
2
50
90
51
180
0
ARC
8
0
10
246.4461504
20
4.9728918
40
2
50
180
51
270
0
ARC
8
0
10
257.1961504
20
24.1228918
40
2
50
270
51
0
0
ARC
8
0
10
257.1961504
20
34.8728918
40
2
50
0
51
90
0
ARC
8
0
10
246.4461504
20
34.8728918
40
2
50
90
51
180
0
ARC
8
0
10
246.4461504
20
24.1228918
40
2
50
180
51
270
0
ARC
8
0
10
257.1961504
20
43.2728918
40
2
50
270
51
0
0
ARC
8
0
10
257.1961504
20
54.0228918
40
2
50
0
51
90
0
ARC
8
0
10
246.4461504
20
54.0228918
40
2
50
90
51
180
0
ARC
8
0
10
246.4461504
20
43.2728918
40
2
50
180
51
270
0
ARC
8
0
10
199.3460654
20
-31.6887657
40
2
50
289.9999981
51
19.9999981
0
ARC
8
0
10
195.6693489
20
-21.58707
40
2
50
19.9999981
51
109.9999981
0
ARC
8
0
10
185.5676532
20
-25.2637865
40
2
50
109.9999981
51
199.9999981
0
ARC
8
0
10
189.2443697
20
-35.3654822
40
2
50
199.9999981
51
289.9999981
0
LINE
8
0
10
168.0961505
20
33.9353918
11
176.9961505
21
33.9353918
0
LINE
8
0
10
178.9961505
20
35.9353918
11
178.9961505
21
55.9353918
0
LINE
8
0
10
166.0961505
20
55.9353918
11
166.0961505
21
35.9353918
0
ARC
8
0
10
176.9961505
20
35.9353918
40
2
50
270
51
0
0
ARC
8
0
10
176.9961505
20
55.9353918
40
2
50
0
51
14.477512
0
ARC
8
0
10
168.0961505
20
55.9353918
40
2
50
165.522488
51
180
0
ARC
8
0
10
168.0961505
20
35.9353918
40
2
50
180
51
270
0
LINE
8
0
10
152.3711505
20
-25.4396082
11
180.3711505
21
-25.4396082
0
LINE
8
0
10
182.3711505
20
-23.4396082
11
182.3711505
21
15.5603918
0
LINE
8
0
10
180.3711505
20
17.5603918
11
152.3711505
21
17.5603918
0
LINE
8
0
10
150.3711505
20
15.5603918
11
150.3711505
21
-23.4396082
0
ARC
8
0
10
180.3711505
20
-23.4396082
40
2
50
270
51
0
0
ARC
8
0
10
180.3711505
20
15.5603918
40
2
50
0
51
90
0
ARC
8
0
10
152.3711505
20
15.5603918
40
2
50
90
51
180
0
ARC
8
0
10
152.3711505
20
-23.4396082
40
2
50
180
51
270
0
ENDSEC
0
EOF