0
SECTION
2
HEADER
9
$INSUNITS
70
4
0
ENDSEC
0
SECTION
2
TABLES
0
TABLE
2
LTYPE
0
LTYPE
72
65
70
64
2
CONTINUOUS
3
______
73
0
40
0
0
ENDTAB
0
TABLE
2
LAYER
0
ENDTAB
0
ENDSEC
0
SECTION
2
ENTITIES
0
LINE
8
0
10
-16.0583504
20
49.3751015
11
-11.7020585
21
-12.9227736
0
LINE
8
0
10
-11.1683983
20
-13.3866774
11
88.1499693
21
-6.4416606
0
LINE
8
0
10
88.6698421
20
-7.0620171
11
81.5207658
21
-35.5816622
0
LINE
8
0
10
81.8055495
20
-36.1614023
11
121.551026
21
-53.5295158
0
LINE
8
0
10
122.1505253
20
-53.3722966
11
141.5954391
21
-27.5732298
0
LINE
8
0
10
141.6961505
20
-27.2722836
11
141.6961505
21
55.9353918
0
LINE
8
0
10
141.1961505
20
56.4353918
11
123.8326422
21
56.4353918
0
LINE
8
0
10
111.0596588
20
56.4353918
11
88.0461505
21
56.4353918
0
LINE
8
0
10
87.5461505
20
56.9353918
11
87.5461505
21
65.5103918
0
LINE
8
0
10
87.0461505
20
66.0103918
11
28.9815477
21
66.0103918
0
LINE
8
0
10
28.4980255
20
65.6376957
11
25.1973908
21
53.1013108
0
LINE
8
0
10
-15.5944466
20
49.9087617
11
24.7487468
21
52.7298327
0
ARC
8
0
10
-11.2032765
20
-12.8878954
40
0.5
50
184.0000013
51
274.0000013
0
ARC
8
0
10
88.1848476
20
-6.9404426
40
0.5
50
345.927522
51
94.0000013
0
ARC
8
0
10
82.0057602
20
-35.7032368
40
0.5
50
165.927522
51
246.3954697
0
ARC
8
0
10
121.7512367
20
-53.0713503
40
0.5
50
246.3954697
51
322.9944407
0
ARC
8
0
10
141.1961505
20
-27.2722836
40
0.5
50
322.9944407
51
0
0
ARC
8
0
10
141.1961505
20
55.9353918
40
0.5
50
0
51
90
0
ARC
8
0
10
88.0461505
20
56.9353918
40
0.5
50
180
51
270
0
ARC
8
0
10
87.0461505
20
65.5103918
40
0.5
50
0
51
90
0
ARC
8
0
10
28.9815477
20
65.5103918
40
0.5
50
90
51
165.2496589
0
ARC
8
0
10
24.7138686
20
53.2286147
40
0.5
50
274.0000013
51
345.2496589
0
ARC
8
0
10
-15.5595684
20
49.4099797
40
0.5
50
94.0000013
51
184.0000013
0
LINE
8
0
10
-4.8474528
20
-7.7319759
11
5.8763608
21
-6.9820938
0
LINE
8
0
10
7.7319759
20
-4.8474528
11
6.9820938
21
5.8763608
0
LINE
8
0
10
4.8474528
20
7.7319759
11
-5.8763608
21
6.9820938
0
LINE
8
0
10
-7.7319759
20
4.8474528
11
-6.9820938
21
-5.8763608
0
LINE
8
0
10
-6.1832893
20
11.3713757
11
4.5405243
21
12.1212578
0
LINE
8
0
10
6.3961394
20
14.2558988
11
5.6462573
21
24.9797124
0
LINE
8
0
10
3.5116163
20
26.8353275
11
-7.2121973
21
26.0854454
0
LINE
8
0
10
-9.0678124
20
23.9508044
11
-8.3179303
21
13.2269908
0
LINE
8
0
10
-7.5191258
20
30.4747273
11
3.2046878
21
31.2246094
0
LINE
8
0
10
5.0603029
20
33.3592504
11
4.3104208
21
44.083064
0
LINE
8
0
10
2.1757798
20
45.9386791
11
-8.5480338
21
45.188797
0
LINE
8
0
10
-10.4036489
20
43.054156
11
-9.6537668
21
32.3303424
0
LINE
8
0
10
14.2558988
20
-6.3961394
11
24.9797124
21
-5.6462573
0
LINE
8
0
10
26.8353275
20
-3.5116163
11
26.0854454
21
7.2121973
0
LINE
8
0
10
23.9508044
20
9.0678124
11
13.2269908
21
8.3179303
0
LINE
8
0
10
11.3713757
20
6.1832893
11
12.1212578
21
-4.5405243
0
LINE
8
0
10
12.9200623
20
12.7072122
11
23.6438759
21
13.4570943
0
LINE
8
0
10
25.499491
20
15.5917353
11
24.7496089
21
26.3155489
0
LINE
8
0
10
22.6149679
20
28.171164
11
11.8911543
21
27.4212819
0
LINE
8
0
10
10.0355392
20
25.2866409
11
10.7854213
21
14.5628273
0
LINE
8
0
10
11.5842258
20
31.8105638
11
22.3080394
21
32.5604459
0
LINE
8
0
10
24.1636545
20
34.6950869
11
23.4137724
21
45.4189005
0
LINE
8
0
10
21.2791314
20
47.2745156
11
10.5553178
21
46.5246335
0
LINE
8
0
10
8.6997027
20
44.3899925
11
9.4495848
21
33.6661789
0
LINE
8
0
10
32.7961506
20
2.9728918
11
43.5461506
21
2.9728918
0
LINE
8
0
10
45.5461506
20
4.9728918
11
45.5461506
21
15.7228918
0
LINE
8
0
10
43.5461506
20
17.7228918
11
32.7961506
21
17.7228918
0
LINE
8
0
10
30.7961506
20
15.7228918
11
30.7961506
21
4.9728918
0
LINE
8
0
10
32.7961506
20
22.1228918
11
43.5461506
21
22.1228918
0
LINE
8
0
10
45.5461506
20
24.1228918
11
45.5461506
21
34.8728918
0
LINE
8
0
10
43.5461506
20
36.8728918
11
32.7961506
21
36.8728918
0
LINE
8
0
10
30.7961506
20
34.8728918
11
30.7961506
21
24.1228918
0
LINE
8
0
10
32.7961506
20
41.2728918
11
43.5461506
21
41.2728918
0
LINE
8
0
10
45.5461506
20
43.2728918
11
45.5461506
21
54.0228918
0
LINE
8
0
10
43.5461506
20
56.0228918
11
32.7961506
21
56.0228918
0
LINE
8
0
10
30.7961506
20
54.0228918
11
30.7961506
21
43.2728918
0
LINE
8
0
10
51.9461506
20
7.7603918
11
62.6961506
21
7.7603918
0
LINE
8
0
10
64.6961506
20
9.7603918
11
64.6961506
21
20.5103918
0
LINE
8
0
10
62.6961506
20
22.5103918
11
51.9461506
21
22.5103918
0
LINE
8
0
10
49.9461506
20
20.5103918
11
49.9461506
21
9.7603918
0
LINE
8
0
10
51.9461506
20
26.9103918
11
62.6961506
21
26.9103918
0
LINE
8
0
10
64.6961506
20
28.9103918
11
64.6961506
21
39.6603918
0
LINE
8
0
10
62.6961506
20
41.6603918
11
51.9461506
21
41.6603918
0
LINE
8
0
10
49.9461506
20
39.6603918
11
49.9461506
21
28.9103918
0
LINE
8
0
10
51.9461506
20
46.0603918
11
62.6961506
21
46.0603918
0
LINE
8
0
10
64.6961506
20
48.0603918
11
64.6961506
21
58.8103918
0
LINE
8
0
10
62.6961506
20
60.8103918
11
51.9461506
21
60.8103918
0
LINE
8
0
10
49.9461506
20
58.8103918
11
49.9461506
21
48.0603918
0
LINE
8
0
10
72.5961506
20
2.9728918
11
83.3461506
21
2.9728918
0
LINE
8
0
10
85.3461506
20
4.9728918
11
85.3461506
21
15.7228918
0
LINE
8
0
10
83.3461506
20
17.7228918
11
72.5961506
21
17.7228918
0
LINE
8
0
10
70.5961506
20
15.7228918
11
70.5961506
21
4.9728918
0
LINE
8
0
10
72.5961506
20
22.1228918
11
83.3461506
21
22.1228918
0
LINE
8
0
10
85.3461506
20
24.1228918
11
85.3461506
21
34.8728918
0
LINE
8
0
10
83.3461506
20
36.8728918
11
72.5961506
21
36.8728918
0
LINE
8
0
10
70.5961506
20
34.8728918
11
70.5961506
21
24.1228918
0
LINE
8
0
10
72.5961506
20
41.2728918
11
83.3461506
21
41.2728918
0
LINE
8
0
10
85.3461506
20
43.2728918
11
85.3461506
21
54.0228918
0
LINE
8
0
10
83.3461506
20
56.0228918
11
72.5961506
21
56.0228918
0
LINE
8
0
10
70.5961506
20
54.0228918
11
70.5961506
21
43.2728918
0
LINE
8
0
10
91.7461505
20
-1.8146082
11
102.4961505
21
-1.8146082
0
LINE
8
0
10
104.4961505
20
0.1853918
11
104.4961505
21
10.9353918
0
LINE
8
0
10
102.4961505
20
12.9353918
11
91.7461505
21
12.9353918
0
LINE
8
0
10
89.7461505
20
10.9353918
11
89.7461505
21
0.1853918
0
LINE
8
0
10
91.7461505
20
17.3353918
11
102.4961505
21
17.3353918
0
LINE
8
0
10
104.4961505
20
19.3353918
11
104.4961505
21
30.0853918
0
LINE
8
0
10
102.4961505
20
32.0853918
11
91.7461505
21
32.0853918
0
LINE
8
0
10
89.7461505
20
30.0853918
11
89.7461505
21
19.3353918
0
LINE
8
0
10
91.7461505
20
36.4853918
11
102.4961505
21
36.4853918
0
LINE
8
0
10
104.4961505
20
38.4853918
11
104.4961505
21
49.2353918
0
LINE
8
0
10
102.4961505
20
51.2353918
11
91.7461505
21
51.2353918
0
LINE
8
0
10
89.7461505
20
49.2353918
11
89.7461505
21
38.4853918
0
LINE
8
0
10
89.9621954
20
-33.5681509
11
100.0638911
21
-37.2448674
0
LINE
8
0
10
102.6273165
20
-36.0495224
11
106.304033
21
-25.9478267
0
LINE
8
0
10
105.108688
20
-23.3844013
11
95.0069923
21
-19.7076848
0
LINE
8
0
10
92.4435669
20
-20.9030298
11
88.7668504
21
-31.0047255
0
LINE
8
0
10
108.0590335
20
-41.1451387
11
117.7210695
21
-45.8576285
0
LINE
8
0
10
120.3953999
20
-44.9367827
11
125.1078897
21
-35.2747467
0
LINE
8
0
10
124.1870439
20
-32.6004163
11
114.5250079
21
-27.8879265
0
LINE
8
0
10
111.8506775
20
-28.8087723
11
107.1381877
21
-38.4708083
0
ARC
8
0
10
5.7368479
20
-4.9869658
40
2
50
274.0000013
51
4.0000013
0
ARC
8
0
10
4.9869658
20
5.7368479
40
2
50
4.0000013
51
94.0000013
0
ARC
8
0
10
-5.7368479
20
4.9869658
40
2
50
94.0000013
51
184.0000013
0
ARC
8
0
10
-4.9869658
20
-5.7368479
40
2
50
184.0000013
51
274.0000013
0
ARC
8
0
10
4.4010114
20
14.1163858
40
2
50
274.0000013
51
4.0000013
0
ARC
8
0
10
3.6511293
20
24.8401995
40
2
50
4.0000013
51
94.0000013
0
ARC
8
0
10
-7.0726844
20
24.0903174
40
2
50
94.0000013
51
184.0000013
0
ARC
8
0
10
-6.3228023
20
13.3665037
40
2
50
184.0000013
51
274.0000013
0
ARC
8
0
10
3.0651749
20
33.2197374
40
2
50
274.0000013
51
4.0000013
0
ARC
8
0
10
2.3152928
20
43.9435511
40
2
50
4.0000013
51
94.0000013
0
ARC
8
0
10
-8.4085209
20
43.193669
40
2
50
94.0000013
51
184.0000013
0
ARC
8
0
10
-7.6586388
20
32.4698553
40
2
50
184.0000013
51
274.0000013
0
ARC
8
0
10
24.8401995
20
-3.6511293
40
2
50
274.0000013
51
4.0000013
0
ARC
8
0
10
24.0903174
20
7.0726844
40
2
50
4.0000013
51
94.0000013
0
ARC
8
0
10
13.3665037
20
6.3228023
40
2
50
94.0000013
51
184.0000013
0
ARC
8
0
10
14.1163858
20
-4.4010114
40
2
50
184.0000013
51
274.0000013
0
ARC
8
0
10
23.504363
20
15.4522223
40
2
50
274.0000013
51
4.0000013
0
ARC
8
0
10
22.7544809
20
26.176036
40
2
50
4.0000013
51
94.0000013
0
ARC
8
0
10
12.0306672
20
25.4261539
40
2
50
94.0000013
51
184.0000013
0
ARC
8
0
10
12.7805493
20
14.7023402
40
2
50
184.0000013
51
274.0000013
0
ARC
8
0
10
22.1685265
20
34.5555739
40
2
50
274.0000013
51
4.0000013
0
ARC
8
0
10
21.4186444
20
45.2793876
40
2
50
4.0000013
51
94.0000013
0
ARC
8
0
10
10.6948307
20
44.5295055
40
2
50
94.0000013
51
184.0000013
0
ARC
8
0
10
11.4447128
20
33.8056918
40
2
50
184.0000013
51
274.0000013
0
ARC
8
0
10
118.5978118
20
-44.0600404
40
2
50
244.0000012
51
334.0000012
0
ARC
8
0
10
123.3103016
20
-34.3980044
40
2
50
334.0000012
51
64.0000012
0
ARC
8
0
10
113.6482656
20
-29.6855146
40
2
50
64.0000012
51
154.0000012
0
ARC
8
0
10
108.9357758
20
-39.3475506
40
2
50
154.0000012
51
244.0000012
0
ARC
8
0
10
43.5461506
20
4.9728918
40
2
50
270
51
0
0
ARC
8
0
10
43.5461506
20
15.7228918
40
2
50
0
51
90
0
ARC
8
0
10
32.7961506
20
15.7228918
40
2
50
90
51
180
0
ARC
8
0
10
32.7961506
20
4.9728918
40
2
50
180
51
270
0
ARC
8
0
10
43.5461506
20
24.1228918
40
2
50
270
51
0
0
ARC
8
0
10
43.5461506
20
34.8728918
40
2
50
0
51
90
0
ARC
8
0
10
32.7961506
20
34.8728918
40
2
50
90
51
180
0
ARC
8
0
10
32.7961506
20
24.1228918
40
2
50
180
51
270
0
ARC
8
0
10
43.5461506
20
43.2728918
40
2
50
270
51
0
0
ARC
8
0
10
43.5461506
20
54.0228918
40
2
50
0
51
90
0
ARC
8
0
10
32.7961506
20
54.0228918
40
2
50
90
51
180
0
ARC
8
0
10
32.7961506
20
43.2728918
40
2
50
180
51
270
0
ARC
8
0
10
62.6961506
20
9.7603918
40
2
50
270
51
0
0
ARC
8
0
10
62.6961506
20
20.5103918
40
2
50
0
51
90
0
ARC
8
0
10
51.9461506
20
20.5103918
40
2
50
90
51
180
0
ARC
8
0
10
51.9461506
20
9.7603918
40
2
50
180
51
270
0
ARC
8
0
10
62.6961506
20
28.9103918
40
2
50
270
51
0
0
ARC
8
0
10
62.6961506
20
39.6603918
40
2
50
0
51
90
0
ARC
8
0
10
51.9461506
20
39.6603918
40
2
50
90
51
180
0
ARC
8
0
10
51.9461506
20
28.9103918
40
2
50
180
51
270
0
ARC
8
0
10
62.6961506
20
48.0603918
40
2
50
270
51
0
0
ARC
8
0
10
62.6961506
20
58.8103918
40
2
50
0
51
90
0
ARC
8
0
10
51.9461506
20
58.8103918
40
2
50
90
51
180
0
ARC
8
0
10
51.9461506
20
48.0603918
40
2
50
180
51
270
0
ARC
8
0
10
83.3461506
20
4.9728918
40
2
50
270
51
0
0
ARC
8
0
10
83.3461506
20
15.7228918
40
2
50
0
51
90
0
ARC
8
0
10
72.5961506
20
15.7228918
40
2
50
90
51
180
0
ARC
8
0
10
72.5961506
20
4.9728918
40
2
50
180
51
270
0
ARC
8
0
10
83.3461506
20
24.1228918
40
2
50
270
51
0
0
ARC
8
0
10
83.3461506
20
34.8728918
40
2
50
0
51
90
0
ARC
8
0
10
72.5961506
20
34.8728918
40
2
50
90
51
180
0
ARC
8
0
10
72.5961506
20
24.1228918
40
2
50
180
51
270
0
ARC
8
0
10
83.3461506
20
43.2728918
40
2
50
270
51
0
0
ARC
8
0
10
83.3461506
20
54.0228918
40
2
50
0
51
90
0
ARC
8
0
10
72.5961506
20
54.0228918
40
2
50
90
51
180
0
ARC
8
0
10
72.5961506
20
43.2728918
40
2
50
180
51
270
0
ARC
8
0
10
102.4961505
20
0.1853918
40
2
50
270
51
0
0
ARC
8
0
10
102.4961505
20
10.9353918
40
2
50
0
51
90
0
ARC
8
0
10
91.7461505
20
10.9353918
40
2
50
90
51
180
0
ARC
8
0
10
91.7461505
20
0.1853918
40
2
50
180
51
270
0
ARC
8
0
10
102.4961505
20
19.3353918
40
2
50
270
51
0
0
ARC
8
0
10
102.4961505
20
30.0853918
40
2
50
0
51
90
0
ARC
8
0
10
91.7461505
20
30.0853918
40
2
50
90
51
180
0
ARC
8
0
10
91.7461505
20
19.3353918
40
2
50
180
51
270
0
ARC
8
0
10
102.4961505
20
38.4853918
40
2
50
270
51
0
0
ARC
8
0
10
102.4961505
20
49.2353918
40
2
50
0
51
90
0
ARC
8
0
10
91.7461505
20
49.2353918
40
2
50
90
51
180
0
ARC
8
0
10
91.7461505
20
38.4853918
40
2
50
180
51
270
0
ARC
8
0
10
100.7479313
20
-35.3654822
40
2
50
250.0000019
51
340.0000019
0
ARC
8
0
10
104.4246478
20
-25.2637865
40
2
50
340.0000019
51
70.0000019
0
ARC
8
0
10
94.3229521
20
-21.58707
40
2
50
70.0000019
51
160.0000019
0
ARC
8
0
10
90.6462356
20
-31.6887657
40
2
50
160.0000019
51
250.0000019
0
LINE
8
0
10
112.9961505
20
33.9353918
11
121.8961505
21
33.9353918
0
LINE
8
0
10
123.8961505
20
35.9353918
11
123.8961505
21
55.9353918
0
LINE
8
0
10
110.9961505
20
55.9353918
11
110.9961505
21
35.9353918
0
ARC
8
0
10
121.8961505
20
35.9353918
40
2
50
270
51
0
0
ARC
8
0
10
121.8961505
20
55.9353918
40
2
50
0
51
14.477512
0
ARC
8
0
10
112.9961505
20
55.9353918
40
2
50
165.522488
51
180
0
ARC
8
0
10
112.9961505
20
35.9353918
40
2
50
180
51
270
0
LINE
8
0
10
109.6211505
20
-25.4396082
11
137.6211505
21
-25.4396082
0
LINE
8
0
10
139.6211505
20
-23.4396082
11
139.6211505
21
15.5603918
0
LINE
8
0
10
137.6211505
20
17.5603918
11
109.6211505
21
17.5603918
0
LINE
8
0
10
107.6211505
20
15.5603918
11
107.6211505
21
-23.4396082
0
ARC
8
0
10
137.6211505
20
-23.4396082
40
2
50
270
51
0
0
ARC
8
0
10
137.6211505
20
15.5603918
40
2
50
0
51
90
0
ARC
8
0
10
109.6211505
20
15.5603918
40
2
50
90
51
180
0
ARC
8
0
10
109.6211505
20
-23.4396082
40
2
50
180
51
270
0
ENDSEC
0
EOF