0
SECTION
2
HEADER
9
$INSUNITS
70
4
0
ENDSEC
0
SECTION
2
TABLES
0
TABLE
2
LTYPE
0
LTYPE
72
65
70
64
2
CONTINUOUS
3
______
73
0
40
0
0
ENDTAB
0
TABLE
2
LAYER
0
ENDTAB
0
ENDSEC
0
SECTION
2
ENTITIES
0
LINE
8
0
10
-13.7313662
20
41.5433459
11
-10.2016886
21
-8.9333951
0
LINE
8
0
10
-8.0670476
20
-10.7890102
11
78.7650272
21
-4.7171201
0
LINE
8
0
10
80.7927483
20
-7.3715432
11
71.7755705
21
-33.1965626
0
LINE
8
0
10
72.9940597
20
-35.7403937
11
112.2473708
21
-49.6900804
0
LINE
8
0
10
114.802571
20
-48.4725979
11
130.0857838
21
-5.2733589
0
LINE
8
0
10
130.2003026
20
-4.6063053
11
130.2003026
21
50.8503377
0
LINE
8
0
10
128.2003026
20
52.8503377
11
84.4537973
21
52.8503377
0
LINE
8
0
10
82.4543507
20
54.8032919
11
82.4462545
21
55.1473835
0
LINE
8
0
10
80.4468079
20
57.1003377
11
66.3537973
21
57.1003377
0
LINE
8
0
10
64.3543507
20
59.0532919
11
64.3462545
21
59.3973835
0
LINE
8
0
10
62.3468079
20
61.3503377
11
44.6537973
21
61.3503377
0
LINE
8
0
10
42.6543507
20
59.3973835
11
42.6462545
21
59.0532919
0
LINE
8
0
10
40.6468079
20
57.1003377
11
26.2039406
21
57.1003377
0
LINE
8
0
10
24.2517529
20
55.5350365
11
22.4654726
21
47.513034
0
LINE
8
0
10
-11.8757511
20
43.6779869
11
20.6527978
21
45.9526047
0
ARC
8
0
10
-8.2065606
20
-8.7938822
40
2
50
184.0000013
51
274.0000013
0
ARC
8
0
10
78.9045402
20
-6.7122482
40
2
50
340.7526187
51
94.0000013
0
ARC
8
0
10
73.6637786
20
-33.8558576
40
2
50
160.7526187
51
250.4360061
0
ARC
8
0
10
112.9170898
20
-47.8055443
40
2
50
250.4360061
51
340.5170214
0
ARC
8
0
10
128.2003026
20
-4.6063053
40
2
50
340.5170214
51
0
0
ARC
8
0
10
128.2003026
20
50.8503377
40
2
50
0
51
90
0
ARC
8
0
10
84.4537973
20
54.8503377
40
2
50
181.3478872
51
270
0
ARC
8
0
10
80.4468079
20
55.1003377
40
2
50
1.3478872
51
90
0
ARC
8
0
10
66.3537973
20
59.1003377
40
2
50
181.3478872
51
270
0
ARC
8
0
10
62.3468079
20
59.3503377
40
2
50
1.3478872
51
90
0
ARC
8
0
10
44.6537973
20
59.3503377
40
2
50
90
51
178.6521128
0
ARC
8
0
10
40.6468079
20
59.1003377
40
2
50
270
51
358.6521128
0
ARC
8
0
10
26.2039406
20
55.1003377
40
2
50
90
51
167.4466024
0
ARC
8
0
10
20.5132849
20
47.9477328
40
2
50
274.0000013
51
347.4466024
0
ARC
8
0
10
-11.7362382
20
41.6828588
40
2
50
94.0000013
51
184.0000013
0
LINE
8
0
10
-4.6352082
20
-7.541707
11
5.6397015
21
-6.8232153
0
LINE
8
0
10
7.4953166
20
-4.6885742
11
6.7698493
21
5.6860919
0
LINE
8
0
10
4.6352082
20
7.541707
11
-5.6397015
21
6.8232153
0
LINE
8
0
10
-7.4953166
20
4.6885742
11
-6.7698493
21
-5.6860919
0
LINE
8
0
10
-5.8280439
20
9.5166383
11
4.4468658
21
10.23513
0
LINE
8
0
10
6.3024809
20
12.3697711
11
5.5770136
21
22.7444372
0
LINE
8
0
10
3.4423725
20
24.6000523
11
-6.8325372
21
23.8815606
0
LINE
8
0
10
-8.6881523
20
21.7469195
11
-7.962685
21
11.3722534
0
LINE
8
0
10
-7.0208796
20
26.5749836
11
3.2540301
21
27.2934753
0
LINE
8
0
10
5.1096452
20
29.4281164
11
4.3841779
21
39.8027825
0
LINE
8
0
10
2.2495368
20
41.6583976
11
-8.0253729
21
40.9399059
0
LINE
8
0
10
-9.880988
20
38.8052648
11
-9.1555207
21
28.4305987
0
LINE
8
0
10
13.4207011
20
-6.2791148
11
23.6956108
21
-5.5606231
0
LINE
8
0
10
25.5512259
20
-3.425982
11
24.8257586
21
6.9486841
0
LINE
8
0
10
22.6911175
20
8.8042992
11
12.4162078
21
8.0858075
0
LINE
8
0
10
10.5605927
20
5.9511664
11
11.28606
21
-4.4234997
0
LINE
8
0
10
12.2278654
20
10.7792305
11
22.5027751
21
11.4977222
0
LINE
8
0
10
24.3583902
20
13.6323633
11
23.6329229
21
24.0070294
0
LINE
8
0
10
21.4982818
20
25.8626445
11
11.2233721
21
25.1441528
0
LINE
8
0
10
9.367757
20
23.0095117
11
10.0932243
21
12.6348456
0
LINE
8
0
10
11.0350297
20
27.8375758
11
21.3099394
21
28.5560675
0
LINE
8
0
10
23.1655545
20
30.6907086
11
22.4400872
21
41.0653747
0
LINE
8
0
10
20.3054461
20
42.9209898
11
10.0305364
21
42.2024981
0
LINE
8
0
10
8.1749213
20
40.067857
11
8.9003886
21
29.6931909
0
LINE
8
0
10
30.2503026
20
5.5003377
11
40.5503026
21
5.5003377
0
LINE
8
0
10
42.5503026
20
7.5003377
11
42.5503026
21
17.9003377
0
LINE
8
0
10
40.5503026
20
19.9003377
11
30.2503026
21
19.9003377
0
LINE
8
0
10
28.2503026
20
17.9003377
11
28.2503026
21
7.5003377
0
LINE
8
0
10
30.2503026
20
22.6003377
11
40.5503026
21
22.6003377
0
LINE
8
0
10
42.5503026
20
24.6003377
11
42.5503026
21
35.0003377
0
LINE
8
0
10
40.5503026
20
37.0003377
11
30.2503026
21
37.0003377
0
LINE
8
0
10
28.2503026
20
35.0003377
11
28.2503026
21
24.6003377
0
LINE
8
0
10
30.2503026
20
39.7003377
11
40.5503026
21
39.7003377
0
LINE
8
0
10
42.5503026
20
41.7003377
11
42.5503026
21
52.1003377
0
LINE
8
0
10
40.5503026
20
54.1003377
11
30.2503026
21
54.1003377
0
LINE
8
0
10
28.2503026
20
52.1003377
11
28.2503026
21
41.7003377
0
LINE
8
0
10
48.3503026
20
9.7503377
11
58.6503026
21
9.7503377
0
LINE
8
0
10
60.6503026
20
11.7503377
11
60.6503026
21
22.1503377
0
LINE
8
0
10
58.6503026
20
24.1503377
11
48.3503026
21
24.1503377
0
LINE
8
0
10
46.3503026
20
22.1503377
11
46.3503026
21
11.7503377
0
LINE
8
0
10
48.3503026
20
26.8503377
11
58.6503026
21
26.8503377
0
LINE
8
0
10
60.6503026
20
28.8503377
11
60.6503026
21
39.2503377
0
LINE
8
0
10
58.6503026
20
41.2503377
11
48.3503026
21
41.2503377
0
LINE
8
0
10
46.3503026
20
39.2503377
11
46.3503026
21
28.8503377
0
LINE
8
0
10
48.3503026
20
43.9503377
11
58.6503026
21
43.9503377
0
LINE
8
0
10
60.6503026
20
45.9503377
11
60.6503026
21
56.3503377
0
LINE
8
0
10
58.6503026
20
58.3503377
11
48.3503026
21
58.3503377
0
LINE
8
0
10
46.3503026
20
56.3503377
11
46.3503026
21
45.9503377
0
LINE
8
0
10
66.4503026
20
5.5003377
11
76.7503026
21
5.5003377
0
LINE
8
0
10
78.7503026
20
7.5003377
11
78.7503026
21
17.9003377
0
LINE
8
0
10
76.7503026
20
19.9003377
11
66.4503026
21
19.9003377
0
LINE
8
0
10
64.4503026
20
17.9003377
11
64.4503026
21
7.5003377
0
LINE
8
0
10
66.4503026
20
22.6003377
11
76.7503026
21
22.6003377
0
LINE
8
0
10
78.7503026
20
24.6003377
11
78.7503026
21
35.0003377
0
LINE
8
0
10
76.7503026
20
37.0003377
11
66.4503026
21
37.0003377
0
LINE
8
0
10
64.4503026
20
35.0003377
11
64.4503026
21
24.6003377
0
LINE
8
0
10
66.4503026
20
39.7003377
11
76.7503026
21
39.7003377
0
LINE
8
0
10
78.7503026
20
41.7003377
11
78.7503026
21
52.1003377
0
LINE
8
0
10
76.7503026
20
54.1003377
11
66.4503026
21
54.1003377
0
LINE
8
0
10
64.4503026
20
52.1003377
11
64.4503026
21
41.7003377
0
LINE
8
0
10
84.5503026
20
1.2503377
11
94.8503026
21
1.2503377
0
LINE
8
0
10
96.8503026
20
3.2503377
11
96.8503026
21
13.6503377
0
LINE
8
0
10
94.8503026
20
15.6503377
11
84.5503026
21
15.6503377
0
LINE
8
0
10
82.5503026
20
13.6503377
11
82.5503026
21
3.2503377
0
LINE
8
0
10
84.5503026
20
18.3503377
11
94.8503026
21
18.3503377
0
LINE
8
0
10
96.8503026
20
20.3503377
11
96.8503026
21
30.7503377
0
LINE
8
0
10
94.8503026
20
32.7503377
11
84.5503026
21
32.7503377
0
LINE
8
0
10
82.5503026
20
30.7503377
11
82.5503026
21
20.3503377
0
LINE
8
0
10
84.5503026
20
35.4503377
11
94.8503026
21
35.4503377
0
LINE
8
0
10
96.8503026
20
37.4503377
11
96.8503026
21
47.8503377
0
LINE
8
0
10
94.8503026
20
49.8503377
11
84.5503026
21
49.8503377
0
LINE
8
0
10
82.5503026
20
47.8503377
11
82.5503026
21
37.4503377
0
LINE
8
0
10
94.1664131
20
-33.3557043
11
97.6892206
21
-23.6768702
0
LINE
8
0
10
96.4938756
20
-21.1134448
11
86.7210723
21
-17.5564353
0
LINE
8
0
10
84.1576469
20
-18.7517803
11
80.6348394
21
-28.4306144
0
LINE
8
0
10
81.8301844
20
-30.9940398
11
91.6029877
21
-34.5510493
0
LINE
8
0
10
110.645236
20
-39.2470876
11
114.1680435
21
-29.5682535
0
LINE
8
0
10
112.9726985
20
-27.0048281
11
103.1998952
21
-23.4478186
0
LINE
8
0
10
100.6364698
20
-24.6431636
11
97.1136623
21
-34.3219977
0
LINE
8
0
10
98.3090073
20
-36.8854231
11
108.0818106
21
-40.4424326
0
ARC
8
0
10
95.8098354
20
-22.99283
40
2
50
340.0000019
51
70.0000019
0
ARC
8
0
10
86.0370321
20
-19.4358205
40
2
50
70.0000019
51
160.0000019
0
ARC
8
0
10
82.5142246
20
-29.1146546
40
2
50
160.0000019
51
250.0000019
0
ARC
8
0
10
92.2870279
20
-32.6716641
40
2
50
250.0000019
51
340.0000019
0
ARC
8
0
10
112.2886583
20
-28.8842133
40
2
50
340.0000019
51
70.0000019
0
ARC
8
0
10
102.515855
20
-25.3272038
40
2
50
70.0000019
51
160.0000019
0
ARC
8
0
10
98.9930475
20
-35.0060379
40
2
50
160.0000019
51
250.0000019
0
ARC
8
0
10
108.7658508
20
-38.5630474
40
2
50
250.0000019
51
340.0000019
0
ARC
8
0
10
40.5503026
20
7.5003377
40
2
50
270
51
0
0
ARC
8
0
10
40.5503026
20
17.9003377
40
2
50
0
51
90
0
ARC
8
0
10
30.2503026
20
17.9003377
40
2
50
90
51
180
0
ARC
8
0
10
30.2503026
20
7.5003377
40
2
50
180
51
270
0
ARC
8
0
10
40.5503026
20
24.6003377
40
2
50
270
51
0
0
ARC
8
0
10
40.5503026
20
35.0003377
40
2
50
0
51
90
0
ARC
8
0
10
30.2503026
20
35.0003377
40
2
50
90
51
180
0
ARC
8
0
10
30.2503026
20
24.6003377
40
2
50
180
51
270
0
ARC
8
0
10
58.6503026
20
11.7503377
40
2
50
270
51
0
0
ARC
8
0
10
58.6503026
20
22.1503377
40
2
50
0
51
90
0
ARC
8
0
10
48.3503026
20
22.1503377
40
2
50
90
51
180
0
ARC
8
0
10
48.3503026
20
11.7503377
40
2
50
180
51
270
0
ARC
8
0
10
58.6503026
20
28.8503377
40
2
50
270
51
0
0
ARC
8
0
10
58.6503026
20
39.2503377
40
2
50
0
51
90
0
ARC
8
0
10
48.3503026
20
39.2503377
40
2
50
90
51
180
0
ARC
8
0
10
48.3503026
20
28.8503377
40
2
50
180
51
270
0
ARC
8
0
10
76.7503026
20
7.5003377
40
2
50
270
51
0
0
ARC
8
0
10
76.7503026
20
17.9003377
40
2
50
0
51
90
0
ARC
8
0
10
66.4503026
20
17.9003377
40
2
50
90
51
180
0
ARC
8
0
10
66.4503026
20
7.5003377
40
2
50
180
51
270
0
ARC
8
0
10
76.7503026
20
24.6003377
40
2
50
270
51
0
0
ARC
8
0
10
76.7503026
20
35.0003377
40
2
50
0
51
90
0
ARC
8
0
10
66.4503026
20
35.0003377
40
2
50
90
51
180
0
ARC
8
0
10
66.4503026
20
24.6003377
40
2
50
180
51
270
0
ARC
8
0
10
94.8503026
20
3.2503377
40
2
50
270
51
0
0
ARC
8
0
10
94.8503026
20
13.6503377
40
2
50
0
51
90
0
ARC
8
0
10
84.5503026
20
13.6503377
40
2
50
90
51
180
0
ARC
8
0
10
84.5503026
20
3.2503377
40
2
50
180
51
270
0
ARC
8
0
10
94.8503026
20
20.3503377
40
2
50
270
51
0
0
ARC
8
0
10
94.8503026
20
30.7503377
40
2
50
0
51
90
0
ARC
8
0
10
84.5503026
20
30.7503377
40
2
50
90
51
180
0
ARC
8
0
10
84.5503026
20
20.3503377
40
2
50
180
51
270
0
ARC
8
0
10
40.5503026
20
41.7003377
40
2
50
270
51
0
0
ARC
8
0
10
40.5503026
20
52.1003377
40
2
50
0
51
90
0
ARC
8
0
10
30.2503026
20
52.1003377
40
2
50
90
51
180
0
ARC
8
0
10
30.2503026
20
41.7003377
40
2
50
180
51
270
0
ARC
8
0
10
58.6503026
20
45.9503377
40
2
50
270
51
0
0
ARC
8
0
10
58.6503026
20
56.3503377
40
2
50
0
51
90
0
ARC
8
0
10
48.3503026
20
56.3503377
40
2
50
90
51
180
0
ARC
8
0
10
48.3503026
20
45.9503377
40
2
50
180
51
270
0
ARC
8
0
10
76.7503026
20
41.7003377
40
2
50
270
51
0
0
ARC
8
0
10
76.7503026
20
52.1003377
40
2
50
0
51
90
0
ARC
8
0
10
66.4503026
20
52.1003377
40
2
50
90
51
180
0
ARC
8
0
10
66.4503026
20
41.7003377
40
2
50
180
51
270
0
ARC
8
0
10
94.8503026
20
37.4503377
40
2
50
270
51
0
0
ARC
8
0
10
94.8503026
20
47.8503377
40
2
50
0
51
90
0
ARC
8
0
10
84.5503026
20
47.8503377
40
2
50
90
51
180
0
ARC
8
0
10
84.5503026
20
37.4503377
40
2
50
180
51
270
0
ARC
8
0
10
5.5001885
20
-4.8280872
40
2
50
274.0000013
51
4.0000017
0
ARC
8
0
10
4.7747212
20
5.5465789
40
2
50
4.0000017
51
94.0000013
0
ARC
8
0
10
-5.5001885
20
4.8280872
40
2
50
94.0000013
51
184.0000017
0
ARC
8
0
10
-4.7747212
20
-5.5465789
40
2
50
184.0000017
51
274.0000013
0
ARC
8
0
10
23.5560978
20
-3.565495
40
2
50
274.0000013
51
4.0000017
0
ARC
8
0
10
22.8306305
20
6.8091711
40
2
50
4.0000017
51
94.0000013
0
ARC
8
0
10
12.5557208
20
6.0906794
40
2
50
94.0000013
51
184.0000017
0
ARC
8
0
10
13.2811881
20
-4.2839867
40
2
50
184.0000017
51
274.0000013
0
ARC
8
0
10
22.3632621
20
13.4928503
40
2
50
274.0000013
51
4.0000017
0
ARC
8
0
10
21.6377948
20
23.8675164
40
2
50
4.0000017
51
94.0000013
0
ARC
8
0
10
11.3628851
20
23.1490247
40
2
50
94.0000013
51
184.0000017
0
ARC
8
0
10
12.0883524
20
12.7743586
40
2
50
184.0000017
51
274.0000013
0
ARC
8
0
10
21.1704264
20
30.5511956
40
2
50
274.0000013
51
4.0000017
0
ARC
8
0
10
20.4449591
20
40.9258617
40
2
50
4.0000017
51
94.0000013
0
ARC
8
0
10
10.1700494
20
40.20737
40
2
50
94.0000013
51
184.0000017
0
ARC
8
0
10
10.8955167
20
29.8327039
40
2
50
184.0000017
51
274.0000013
0
ARC
8
0
10
4.3073528
20
12.2302581
40
2
50
274.0000013
51
4.0000017
0
ARC
8
0
10
3.5818855
20
22.6049242
40
2
50
4.0000017
51
94.0000013
0
ARC
8
0
10
-6.6930242
20
21.8864325
40
2
50
94.0000013
51
184.0000017
0
ARC
8
0
10
-5.9675569
20
11.5117664
40
2
50
184.0000017
51
274.0000013
0
ARC
8
0
10
3.1145171
20
29.2886034
40
2
50
274.0000013
51
4.0000017
0
ARC
8
0
10
2.3890498
20
39.6632695
40
2
50
4.0000017
51
94.0000013
0
ARC
8
0
10
-7.8858599
20
38.9447778
40
2
50
94.0000013
51
184.0000017
0
ARC
8
0
10
-7.1603926
20
28.5701117
40
2
50
184.0000017
51
274.0000013
0
LINE
8
0
10
97.7707468
20
-17.006563
11
114.685214
21
-23.1629256
0
LINE
8
0
10
117.2486394
20
-21.9675805
11
126.8252034
21
4.343813
0
LINE
8
0
10
125.6298584
20
6.9072384
11
108.7153912
21
13.063601
0
LINE
8
0
10
106.1519658
20
11.8682559
11
96.5754018
21
-14.4431376
0
ARC
8
0
10
115.3692542
20
-21.2835403
40
2
50
250.0000019
51
340.0000019
0
ARC
8
0
10
124.9458182
20
5.0278532
40
2
50
340.0000019
51
70.0000019
0
ARC
8
0
10
108.031351
20
11.1842157
40
2
50
70.0000019
51
160.0000019
0
ARC
8
0
10
98.454787
20
-15.1271778
40
2
50
160.0000019
51
250.0000019
0
ENDSEC
0
EOF