0
SECTION
2
HEADER
9
$INSUNITS
70
4
0
ENDSEC
0
SECTION
2
TABLES
0
TABLE
2
LTYPE
0
LTYPE
72
65
70
64
2
CONTINUOUS
3
______
73
0
40
0
0
ENDTAB
0
TABLE
2
LAYER
0
ENDTAB
0
ENDSEC
0
SECTION
2
ENTITIES
0
LINE
8
0
10
-16.0583504
20
49.3751015
11
-11.7020585
21
-12.9227736
0
LINE
8
0
10
-11.1683983
20
-13.3866774
11
88.1499693
21
-6.4416606
0
LINE
8
0
10
88.6698421
20
-7.0620171
11
81.5207658
21
-35.5816622
0
LINE
8
0
10
81.8055495
20
-36.1614023
11
121.551026
21
-53.5295158
0
LINE
8
0
10
122.1505253
20
-53.3722966
11
141.5954391
21
-27.5732298
0
LINE
8
0
10
141.6961505
20
-27.2722836
11
141.6961505
21
55.9353918
0
LINE
8
0
10
141.1961505
20
56.4353918
11
123.8326422
21
56.4353918
0
LINE
8
0
10
111.0596588
20
56.4353918
11
88.0461505
21
56.4353918
0
LINE
8
0
10
87.5461505
20
56.9353918
11
87.5461505
21
65.5103918
0
LINE
8
0
10
87.0461505
20
66.0103918
11
28.9815477
21
66.0103918
0
LINE
8
0
10
28.4980255
20
65.6376957
11
25.1973908
21
53.1013108
0
LINE
8
0
10
-15.5944466
20
49.9087617
11
24.7487468
21
52.7298327
0
ARC
8
0
10
-11.2032765
20
-12.8878954
40
0.5
50
184.0000013
51
274.0000013
0
ARC
8
0
10
88.1848476
20
-6.9404426
40
0.5
50
345.927522
51
94.0000013
0
ARC
8
0
10
82.0057602
20
-35.7032368
40
0.5
50
165.927522
51
246.3954697
0
ARC
8
0
10
121.7512367
20
-53.0713503
40
0.5
50
246.3954697
51
322.9944407
0
ARC
8
0
10
141.1961505
20
-27.2722836
40
0.5
50
322.9944407
51
0
0
ARC
8
0
10
141.1961505
20
55.9353918
40
0.5
50
0
51
90
0
ARC
8
0
10
88.0461505
20
56.9353918
40
0.5
50
180
51
270
0
ARC
8
0
10
87.0461505
20
65.5103918
40
0.5
50
0
51
90
0
ARC
8
0
10
28.9815477
20
65.5103918
40
0.5
50
90
51
165.2496589
0
ARC
8
0
10
24.7138686
20
53.2286147
40
0.5
50
274.0000013
51
345.2496589
0
ARC
8
0
10
-15.5595684
20
49.4099797
40
0.5
50
94.0000013
51
184.0000013
0
LINE
8
0
10
112.9961505
20
33.9353918
11
121.8961505
21
33.9353918
0
LINE
8
0
10
123.8961505
20
35.9353918
11
123.8961505
21
55.9353918
0
LINE
8
0
10
110.9961505
20
55.9353918
11
110.9961505
21
35.9353918
0
ARC
8
0
10
121.8961505
20
35.9353918
40
2
50
270
51
0
0
ARC
8
0
10
121.8961505
20
55.9353918
40
2
50
0
51
14.477512
0
ARC
8
0
10
112.9961505
20
55.9353918
40
2
50
165.522488
51
180
0
ARC
8
0
10
112.9961505
20
35.9353918
40
2
50
180
51
270
0
LINE
8
0
10
109.6211505
20
-25.4396082
11
137.6211505
21
-25.4396082
0
LINE
8
0
10
139.6211505
20
-23.4396082
11
139.6211505
21
15.5603918
0
LINE
8
0
10
137.6211505
20
17.5603918
11
109.6211505
21
17.5603918
0
LINE
8
0
10
107.6211505
20
15.5603918
11
107.6211505
21
-23.4396082
0
ARC
8
0
10
137.6211505
20
-23.4396082
40
2
50
270
51
0
0
ARC
8
0
10
137.6211505
20
15.5603918
40
2
50
0
51
90
0
ARC
8
0
10
109.6211505
20
15.5603918
40
2
50
90
51
180
0
ARC
8
0
10
109.6211505
20
-23.4396082
40
2
50
180
51
270
0
ENDSEC
0
EOF