0
SECTION
2
HEADER
9
$INSUNITS
70
4
0
ENDSEC
0
SECTION
2
TABLES
0
TABLE
2
LTYPE
0
LTYPE
72
65
70
64
2
CONTINUOUS
3
______
73
0
40
0
0
ENDTAB
0
TABLE
2
LAYER
0
ENDTAB
0
ENDSEC
0
SECTION
2
ENTITIES
0
LINE
8
0
10
-15.8660073
20
43.398961
11
-12.0573038
21
-11.0680362
0
LINE
8
0
10
-9.9226628
20
-12.9236513
11
76.9090061
21
-6.8517895
0
LINE
8
0
10
78.9710423
20
-9.398193
11
72.268025
21
-32.7743649
0
LINE
8
0
10
73.4108099
20
-35.1673809
11
113.5410107
21
-52.1573132
0
LINE
8
0
10
116.203514
20
-50.9902544
11
132.0830677
21
-6.6768176
0
LINE
8
0
10
132.2003026
20
-6.0021359
11
132.2003026
21
52.8503377
0
LINE
8
0
10
130.2003026
20
54.8503377
11
86.4537973
21
54.8503377
0
LINE
8
0
10
84.4543507
20
56.8032919
11
84.4462545
21
57.1473835
0
LINE
8
0
10
82.4468079
20
59.1003377
11
68.3537973
21
59.1003377
0
LINE
8
0
10
66.3543507
20
61.0532919
11
66.3462545
21
61.3973835
0
LINE
8
0
10
64.3468079
20
63.3503377
11
42.6537973
21
63.3503377
0
LINE
8
0
10
40.6543507
20
61.3973835
11
40.6462545
21
61.0532919
0
LINE
8
0
10
38.6468079
20
59.1003377
11
24.1896793
21
59.1003377
0
LINE
8
0
10
22.2413521
20
57.5520249
11
20.3404529
21
49.3526035
0
LINE
8
0
10
-14.0103922
20
45.5336021
11
18.5316386
21
47.8091626
0
ARC
8
0
10
-10.0621757
20
-10.9285233
40
2
50
184.0000013
51
274.0000013
0
ARC
8
0
10
77.0485191
20
-8.8469176
40
2
50
343.9999795
51
94.0000013
0
ARC
8
0
10
74.1905481
20
-33.3256403
40
2
50
163.9999795
51
247.0536456
0
ARC
8
0
10
114.3207489
20
-50.3155726
40
2
50
247.0536456
51
340.285051
0
ARC
8
0
10
130.2003026
20
-6.0021359
40
2
50
340.285051
51
0
0
ARC
8
0
10
130.2003026
20
52.8503377
40
2
50
0
51
90
0
ARC
8
0
10
86.4537973
20
56.8503377
40
2
50
181.3478872
51
270
0
ARC
8
0
10
82.4468079
20
57.1003377
40
2
50
1.3478872
51
90
0
ARC
8
0
10
68.3537973
20
61.1003377
40
2
50
181.3478872
51
270
0
ARC
8
0
10
64.3468079
20
61.3503377
40
2
50
1.3478872
51
90
0
ARC
8
0
10
42.6537973
20
61.3503377
40
2
50
90
51
178.6521128
0
ARC
8
0
10
38.6468079
20
61.1003377
40
2
50
270
51
358.6521128
0
ARC
8
0
10
24.1896793
20
57.1003377
40
2
50
90
51
166.9475105
0
ARC
8
0
10
18.3921257
20
49.8042907
40
2
50
274.0000013
51
346.9475105
0
ARC
8
0
10
-13.8708792
20
43.538474
40
2
50
94.0000017
51
184.0000013
0
ENDSEC
0
EOF